<svg width="17" height="17" viewBox="0 0 17 17" fill="none" xmlns="http://www.w3.org/2000/svg">
<path d="M7.51375 0.5625C7.70125 0.1875 8.00333 0 8.42 0C8.83667 0 9.13875 0.1875 9.32625 0.5625L11.3575 4.6875L15.92 5.375C16.3367 5.41667 16.6075 5.63542 16.7325 6.03125C16.8575 6.42708 16.7742 6.77083 16.4825 7.0625L13.17 10.2812L13.9513 14.8438C14.0138 15.2396 13.8783 15.5521 13.545 15.7812C13.2117 16.0312 12.8679 16.0625 12.5138 15.875L8.42 13.75L4.32625 15.875C3.97208 16.0833 3.62833 16.0625 3.295 15.8125C2.96167 15.5625 2.82625 15.2396 2.88875 14.8438L3.67 10.2812L0.3575 7.0625C0.0658334 6.77083 -0.0174999 6.42708 0.1075 6.03125C0.2325 5.63542 0.503333 5.41667 0.92 5.375L5.4825 4.6875L7.51375 0.5625Z" fill="white"/>
</svg>
